<mxfile host="app.diagrams.net" modified="2022-04-25T15:47:42.152Z" agent="5.0 (Windows NT 10.0; Win64; x64) AppleWebKit/537.36 (KHTML, like Gecko) Chrome/100.0.4896.127 Safari/537.36 Edg/100.0.1185.44" etag="Sox4neHEh0BIjbDWTlJO" version="17.4.6" type="github">
  <diagram id="kgpKYQtTHZ0yAKxKKP6v" name="Page-1">
    <mxGraphModel dx="2512" dy="762" grid="1" gridSize="10" guides="1" tooltips="1" connect="1" arrows="1" fold="1" page="1" pageScale="1" pageWidth="850" pageHeight="1100" math="0" shadow="0">
      <root>
        <mxCell id="0" />
        <mxCell id="1" parent="0" />
        <mxCell id="3nuBFxr9cyL0pnOWT2aG-1" value="Система обработки &#xa;журнала" style="shape=umlLifeline;perimeter=lifelinePerimeter;container=1;collapsible=0;recursiveResize=0;rounded=0;shadow=0;strokeWidth=1;" parent="1" vertex="1">
          <mxGeometry x="120" y="80" width="100" height="370" as="geometry" />
        </mxCell>
        <mxCell id="-oEsXnvE0dcOvNBBtGU2-11" value="" style="html=1;points=[];perimeter=orthogonalPerimeter;" vertex="1" parent="3nuBFxr9cyL0pnOWT2aG-1">
          <mxGeometry x="45" y="200" width="10" height="40" as="geometry" />
        </mxCell>
        <mxCell id="-oEsXnvE0dcOvNBBtGU2-17" value="" style="html=1;points=[];perimeter=orthogonalPerimeter;" vertex="1" parent="3nuBFxr9cyL0pnOWT2aG-1">
          <mxGeometry x="45" y="310" width="10" height="40" as="geometry" />
        </mxCell>
        <mxCell id="-oEsXnvE0dcOvNBBtGU2-18" value="Изменение состояние&amp;nbsp;&lt;br&gt;данного заказа в журнале&lt;br&gt;&lt;span style=&quot;white-space: pre&quot;&gt;	&lt;/span&gt;(0сек, 15 сек)" style="edgeStyle=orthogonalEdgeStyle;html=1;align=left;spacingLeft=2;endArrow=block;rounded=0;entryX=1;entryY=0;" edge="1" target="-oEsXnvE0dcOvNBBtGU2-17" parent="3nuBFxr9cyL0pnOWT2aG-1" source="-oEsXnvE0dcOvNBBtGU2-11">
          <mxGeometry x="0.1538" relative="1" as="geometry">
            <mxPoint x="50" y="240" as="sourcePoint" />
            <Array as="points">
              <mxPoint x="80" y="230" />
              <mxPoint x="80" y="260" />
              <mxPoint x="70" y="260" />
              <mxPoint x="70" y="310" />
            </Array>
            <mxPoint as="offset" />
          </mxGeometry>
        </mxCell>
        <mxCell id="3nuBFxr9cyL0pnOWT2aG-5" value=":Курьер" style="shape=umlLifeline;perimeter=lifelinePerimeter;container=1;collapsible=0;recursiveResize=0;rounded=0;shadow=0;strokeWidth=1;" parent="1" vertex="1">
          <mxGeometry x="300" y="90" width="100" height="280" as="geometry" />
        </mxCell>
        <mxCell id="-oEsXnvE0dcOvNBBtGU2-1" value="" style="html=1;points=[];perimeter=orthogonalPerimeter;" vertex="1" parent="3nuBFxr9cyL0pnOWT2aG-5">
          <mxGeometry x="50" y="190" width="10" height="40" as="geometry" />
        </mxCell>
        <mxCell id="-oEsXnvE0dcOvNBBtGU2-2" value="Доставка(10 мин, 2 часа)" style="edgeStyle=orthogonalEdgeStyle;html=1;align=left;spacingLeft=2;endArrow=block;rounded=0;entryX=1;entryY=0;startArrow=none;" edge="1" target="-oEsXnvE0dcOvNBBtGU2-1" parent="3nuBFxr9cyL0pnOWT2aG-5">
          <mxGeometry relative="1" as="geometry">
            <mxPoint x="60" y="80" as="sourcePoint" />
            <Array as="points">
              <mxPoint x="50" y="80" />
              <mxPoint x="50" y="90" />
              <mxPoint x="80" y="90" />
              <mxPoint x="80" y="190" />
            </Array>
          </mxGeometry>
        </mxCell>
        <mxCell id="-oEsXnvE0dcOvNBBtGU2-5" value="" style="html=1;points=[];perimeter=orthogonalPerimeter;" vertex="1" parent="3nuBFxr9cyL0pnOWT2aG-5">
          <mxGeometry x="45" y="50" width="10" height="40" as="geometry" />
        </mxCell>
        <mxCell id="3nuBFxr9cyL0pnOWT2aG-8" value="Предоставление списка &#xa;заказов на доставку" style="verticalAlign=bottom;endArrow=block;entryX=0;entryY=0;shadow=0;strokeWidth=1;" parent="1" edge="1">
          <mxGeometry relative="1" as="geometry">
            <mxPoint x="175" y="160.0000000000001" as="sourcePoint" />
            <mxPoint x="345" y="160.0000000000001" as="targetPoint" />
          </mxGeometry>
        </mxCell>
        <mxCell id="3nuBFxr9cyL0pnOWT2aG-9" value="Запрос на изменение&#xa; состояния заказа&#xa;(0сек,1мин)" style="verticalAlign=bottom;endArrow=block;shadow=0;strokeWidth=1;exitX=0.2;exitY=0.55;exitDx=0;exitDy=0;exitPerimeter=0;entryX=1.1;entryY=0.575;entryDx=0;entryDy=0;entryPerimeter=0;" parent="1" source="-oEsXnvE0dcOvNBBtGU2-1" target="-oEsXnvE0dcOvNBBtGU2-11" edge="1">
          <mxGeometry relative="1" as="geometry">
            <mxPoint x="345" y="304.96000000000004" as="sourcePoint" />
            <mxPoint as="offset" />
          </mxGeometry>
        </mxCell>
        <mxCell id="-oEsXnvE0dcOvNBBtGU2-8" value="Журнал заказов на доставку" style="shape=umlLifeline;perimeter=lifelinePerimeter;whiteSpace=wrap;html=1;container=1;collapsible=0;recursiveResize=0;outlineConnect=0;" vertex="1" parent="1">
          <mxGeometry x="-120" y="80" width="217.5" height="500" as="geometry" />
        </mxCell>
        <mxCell id="-oEsXnvE0dcOvNBBtGU2-22" value="" style="html=1;points=[];perimeter=orthogonalPerimeter;" vertex="1" parent="-oEsXnvE0dcOvNBBtGU2-8">
          <mxGeometry x="103.75" y="330" width="10" height="40" as="geometry" />
        </mxCell>
        <mxCell id="-oEsXnvE0dcOvNBBtGU2-24" value="" style="html=1;points=[];perimeter=orthogonalPerimeter;" vertex="1" parent="-oEsXnvE0dcOvNBBtGU2-8">
          <mxGeometry x="103.75" y="450" width="10" height="40" as="geometry" />
        </mxCell>
        <mxCell id="-oEsXnvE0dcOvNBBtGU2-25" value="Соединение журналов&lt;br&gt;&lt;span style=&quot;white-space: pre&quot;&gt;	&lt;/span&gt;(0 сек, 2 мин)" style="edgeStyle=orthogonalEdgeStyle;html=1;align=left;spacingLeft=2;endArrow=block;rounded=0;entryX=1;entryY=0;exitX=0.9;exitY=1;exitDx=0;exitDy=0;exitPerimeter=0;" edge="1" target="-oEsXnvE0dcOvNBBtGU2-24" parent="-oEsXnvE0dcOvNBBtGU2-8" source="-oEsXnvE0dcOvNBBtGU2-22">
          <mxGeometry relative="1" as="geometry">
            <mxPoint x="52.5" y="420" as="sourcePoint" />
            <Array as="points">
              <mxPoint x="113" y="380" />
              <mxPoint x="130" y="380" />
              <mxPoint x="130" y="440" />
              <mxPoint x="114" y="440" />
            </Array>
          </mxGeometry>
        </mxCell>
        <mxCell id="-oEsXnvE0dcOvNBBtGU2-9" value="" style="endArrow=classic;html=1;rounded=0;entryX=0.54;entryY=0.223;entryDx=0;entryDy=0;entryPerimeter=0;" edge="1" parent="1" source="-oEsXnvE0dcOvNBBtGU2-8" target="3nuBFxr9cyL0pnOWT2aG-1">
          <mxGeometry width="50" height="50" relative="1" as="geometry">
            <mxPoint x="400" y="370" as="sourcePoint" />
            <mxPoint x="450" y="320" as="targetPoint" />
          </mxGeometry>
        </mxCell>
        <mxCell id="-oEsXnvE0dcOvNBBtGU2-10" value="Отправка данного&lt;br&gt;журнала на доставку&lt;br&gt;(0 сек, 1 мин)" style="text;html=1;align=center;verticalAlign=middle;resizable=0;points=[];autosize=1;strokeColor=none;fillColor=none;" vertex="1" parent="1">
          <mxGeometry x="30" y="115" width="130" height="50" as="geometry" />
        </mxCell>
        <mxCell id="-oEsXnvE0dcOvNBBtGU2-20" value="" style="endArrow=classic;html=1;rounded=0;exitX=0.2;exitY=0.85;exitDx=0;exitDy=0;exitPerimeter=0;entryX=0.925;entryY=0.3;entryDx=0;entryDy=0;entryPerimeter=0;startArrow=none;" edge="1" parent="1" source="-oEsXnvE0dcOvNBBtGU2-21" target="-oEsXnvE0dcOvNBBtGU2-22">
          <mxGeometry width="50" height="50" relative="1" as="geometry">
            <mxPoint x="400" y="340" as="sourcePoint" />
            <mxPoint x="450" y="290" as="targetPoint" />
          </mxGeometry>
        </mxCell>
        <mxCell id="-oEsXnvE0dcOvNBBtGU2-4" value="Отслеживание доставки" style="shape=umlFrame;whiteSpace=wrap;html=1;width=80;height=40;" vertex="1" parent="1">
          <mxGeometry x="-257.5" y="40" width="855" height="600" as="geometry" />
        </mxCell>
        <mxCell id="-oEsXnvE0dcOvNBBtGU2-21" value="Отправка измененного&lt;br&gt;&amp;nbsp;журнала&lt;br&gt;(0 сек, 1 мин)" style="text;html=1;align=center;verticalAlign=middle;resizable=0;points=[];autosize=1;strokeColor=none;fillColor=none;" vertex="1" parent="1">
          <mxGeometry y="380" width="140" height="50" as="geometry" />
        </mxCell>
        <mxCell id="-oEsXnvE0dcOvNBBtGU2-28" value="" style="endArrow=none;html=1;rounded=0;exitX=0.2;exitY=0.85;exitDx=0;exitDy=0;exitPerimeter=0;entryX=0.925;entryY=0.3;entryDx=0;entryDy=0;entryPerimeter=0;" edge="1" parent="1" source="-oEsXnvE0dcOvNBBtGU2-17" target="-oEsXnvE0dcOvNBBtGU2-21">
          <mxGeometry width="50" height="50" relative="1" as="geometry">
            <mxPoint x="167" y="424" as="sourcePoint" />
            <mxPoint x="-7" y="422" as="targetPoint" />
          </mxGeometry>
        </mxCell>
      </root>
    </mxGraphModel>
  </diagram>
</mxfile>
